<svg xmlns="http://www.w3.org/2000/svg"
shape-rendering="geometricPrecision"
width="4000" height="4000" viewBox="0 0 1024 1024"><rect width="100%" height="100%" fill="#FEFDFD" />
  <metadata>null</metadata>

<path d="
M 144.939 638.61
C 145.994 630.486 147.526 622.798 152.45 616
C 160.678 604.639 176.507 600.707 189.486 605.052
C 192.488 606.057 195.383 607.89 197.704 610.029
C 198.819 611.057 199.699 612.566 200.89 613.46
C 201.201 612.937 200.824 611.613 200.878 610.988
C 201.052 608.962 201.008 606.892 201.278 604.877
C 208.096 604.933 214.956 604.954 221.773 604.822
C 222.547 625.666 221.83 646.642 221.8 667.499
C 221.782 679.325 222.905 691.966 215.801 702.211
C 212.256 707.322 206.762 710.795 201.028 712.94
C 189.264 717.342 175.522 717.245 163.404 714.27
C 159.256 713.251 155.25 711.91 151.331 710.211
C 150.11 709.682 147.597 708.841 146.943 707.683
C 149.706 702.899 152.27 698.006 155.018 693.215
C 155.528 692.76 158.108 694.215 158.814 694.53
C 162.36 696.111 166.28 697.412 170.111 698.076
C 179.83 699.762 193.757 700.48 198.499 689.702
C 199.762 686.833 200.002 683.572 200.143 680.48
C 200.266 677.802 200.581 674.971 200.164 672.317
C 195.828 675.798 192.65 679.187 187.135 680.957
C 183.405 682.153 179.436 682.655 175.523 682.455
C 172.253 682.287 168.922 681.688 165.83 680.6
C 148.322 674.437 143.901 655.26 144.939 638.61 Z
M 166.96 638.617
C 166.326 646.068 166.747 655.911 172.63 661.365
C 179.177 667.434 190.647 665.802 196.18 659.221
C 198.866 656.026 199.709 652.016 200.067 647.977
C 200.752 640.225 201.026 630.565 195.154 624.645
C 189.237 618.678 177.638 618.676 171.945 624.949
C 168.682 628.545 167.361 633.901 166.96 638.617 Z"
opacity="1" fill="rgb(59,64,66)" fill-rule="evenodd" />
<path d="
M 231.441 659.113
C 231.949 655.672 232.392 652.532 234.095 649.418
C 237.423 643.333 243.422 639.733 249.956 637.841
C 259.887 634.966 270.027 635.022 280.263 635.031
C 280.727 634.318 280.434 632.543 280.416 631.685
C 280.329 627.545 279.19 623.445 275.326 621.311
C 269.395 618.036 260.128 619.658 253.975 621.681
C 251.793 622.399 249.49 623.231 247.489 624.37
C 246.94 624.683 245.901 625.761 245.3 625.731
C 243.038 620.726 241.457 615.336 238.884 610.478
C 245.386 607.26 252.689 604.775 259.91 603.838
C 265.385 603.127 270.951 602.825 276.448 603.51
C 282.422 604.255 288.709 605.765 293.511 609.578
C 301.307 615.768 302.194 625.793 302.223 634.973
C 302.26 646.482 302.221 657.992 302.235 669.501
C 302.239 672.835 302.241 676.168 302.256 679.501
C 302.261 680.751 301.959 682.456 302.266 683.651
C 297.558 683.39 292.715 683.755 287.994 683.763
C 286.263 683.766 283.864 684.264 282.244 683.67
C 281.66 681.203 281.64 678.643 281.168 676.164
C 268.513 690.097 239.313 689.796 232.675 669.848
C 231.547 666.457 231.201 662.664 231.441 659.113 Z
M 253.393 658.079
C 253.127 659.355 253.081 660.666 253.337 661.95
C 255.156 671.05 266.867 671.503 273.674 667.977
C 280.902 664.233 280.861 657.164 280.466 649.921
C 278.387 649.616 276.206 649.769 274.107 649.741
C 266.484 649.639 256.346 649.573 253.393 658.079 Z"
opacity="1" fill="rgb(59,64,66)" fill-rule="evenodd" />
<path d="
M 315.976 609.12
C 316.129 607.803 316.06 606.437 316.086 605.111
C 317.051 604.222 320.195 604.77 321.504 604.769
C 325.005 604.766 328.506 604.752 332.006 604.77
C 333.496 604.778 335.222 604.507 336.669 604.841
C 336.856 608.318 336.514 611.967 336.981 615.412
C 338.314 614.63 339.372 612.577 340.442 611.423
C 342.425 609.286 344.856 607.43 347.45 606.09
C 356.884 601.215 369.827 601.689 377.671 609.272
C 379.668 611.203 381.635 613.549 382.377 616.285
C 383.054 616.417 383.91 614.709 384.274 614.247
C 385.947 612.119 388.017 610.364 390.119 608.675
C 395.186 604.604 402.353 602.769 408.763 603.02
C 412.117 603.151 415.832 603.646 418.934 604.99
C 427.223 608.583 431.694 616.414 432.992 625.072
C 433.796 630.443 433.371 636.092 433.379 641.506
C 433.392 650.339 433.65 659.166 433.669 667.999
C 433.681 673.172 433.214 678.592 433.695 683.737
C 426.356 684.483 418.805 683.207 411.438 683.794
C 410.93 683.328 411.301 680.915 411.291 680.185
C 411.241 676.615 411.301 673.043 411.308 669.473
C 411.327 660.316 411.293 651.16 411.305 642.003
C 411.311 637.21 411.918 631.665 409.744 627.219
C 405.005 617.527 390.11 621.093 386.814 630.081
C 385.984 632.342 386.082 634.873 386.072 637.249
C 386.057 640.832 386.097 644.416 386.104 647.999
C 386.127 659.851 385.449 671.93 386.124 683.756
C 384.549 684.302 381.705 683.711 379.999 683.707
C 374.696 683.692 369.241 683.336 363.956 683.771
C 363.456 683.272 363.822 680.921 363.811 680.18
C 363.757 676.445 363.86 672.705 363.868 668.969
C 363.886 659.978 363.886 650.988 363.894 641.998
C 363.899 636.934 364.383 631.428 361.921 626.801
C 356.605 616.808 342.071 622.203 338.874 631.06
C 337.023 636.19 338.223 643.117 338.225 648.5
C 338.229 656.5 338.232 664.499 338.215 672.499
C 338.207 676.162 337.819 680.08 338.153 683.713
C 332.874 683.533 327.567 683.694 322.282 683.649
C 320.235 683.632 317.966 683.896 315.95 683.6
C 315.541 669.256 315.801 654.853 315.815 640.501
C 315.826 630.087 315.41 619.516 315.976 609.12 Z"
opacity="1" fill="rgb(60,65,67)" fill-rule="evenodd" />
<path d="
M 392.631 376.263
C 405.982 365.878 424.402 360.93 440.999 359.448
C 449.93 358.651 459.049 359.117 468.007 359.102
C 492.433 359.06 516.864 359.177 541.29 359.028
C 554.886 358.946 568.977 357.827 582.509 359.429
C 592.691 360.634 602.86 363.006 612.589 366.214
C 611.897 366.591 611.749 367.917 611.003 367.992
C 604.952 365.75 599.096 363.681 592.509 363.819
C 573.581 364.213 557.95 378.525 555.117 397.119
C 554.346 402.178 554.687 407.095 555.828 412.067
C 556.282 414.05 556.763 416.681 558.009 418.336
C 550.545 416.875 541.563 421.901 536.686 427.153
C 536.287 427.674 536.031 428.415 535.544 428.835
C 523.65 429.262 511.613 428.821 499.702 428.807
C 496.938 428.804 494.17 428.771 491.406 428.851
C 490.616 428.874 488.771 428.686 488.421 429.51
C 487.685 427.916 485.458 426.159 484.133 424.976
C 479.388 420.737 471.929 417.164 465.38 418.212
C 466.515 416.598 466.876 414.042 467.36 412.152
C 469.094 405.37 468.763 398.501 466.822 391.799
C 465.012 385.549 461.84 379.87 457.304 375.185
C 445.916 363.421 427.574 360.592 413.043 368.062
C 409.375 369.947 406.072 372.354 403.251 375.373
C 389.509 390.082 388.506 414.438 403.112 429.005
C 410.541 436.414 420.849 440.42 431.304 439.909
C 434.187 439.768 438.923 439.765 441.274 437.856
C 440.838 439.866 440.339 442.318 440.182 444.327
C 439.5 444.411 439.088 445.766 438.772 446.329
C 437.643 448.341 436.37 450.275 435.223 452.279
C 432.505 457.025 429.692 461.715 426.957 466.451
C 425.158 469.566 423.488 472.969 421.377 475.88
C 416.229 477.346 411.346 481.346 406.668 484.036
C 397.549 489.28 388.509 494.703 379.27 499.736
C 376.041 501.495 372.793 503.258 369.639 505.147
C 367.764 506.269 366.069 506.916 365.214 509.089
C 364.634 505.456 363.759 502.05 363.689 498.314
C 363.446 485.449 366.896 472.356 369.505 459.842
C 373.068 442.751 376.83 425.64 381.491 408.811
C 383.72 400.761 385.561 392.571 388.554 384.755
C 389.573 382.096 390.519 378.28 392.631 376.263 Z
M 481.411 398.055
C 480.678 400.785 480.82 405.091 483.798 406.471
C 484.837 406.952 486.135 406.807 487.241 406.77
C 489.584 406.693 492.253 406.945 494.527 406.375
C 497.671 404.863 497.583 398.265 495.471 395.893
C 494.295 394.572 492.33 394.795 490.717 394.759
C 487.037 394.676 483.126 394.09 481.411 398.055 Z
M 527.429 395.465
C 526.777 398.756 526.852 402.72 527.484 406.005
C 528.794 406.54 530.606 406.203 532.002 406.216
C 535.119 406.245 538.486 406.625 541.569 406.12
C 542.672 405.351 543.431 403.139 542.737 401.901
C 542.21 400.959 540.989 400.405 540.146 399.796
C 538.052 398.284 535.748 395.571 533.341 394.637
C 531.823 394.048 529.249 394.643 527.733 394.993
C 527.632 395.15 527.53 395.308 527.429 395.465 Z"
opacity="1" fill="rgb(2,177,234)" fill-rule="evenodd" />
<path d="
M 365.214 509.089
C 366.069 506.916 367.764 506.269 369.639 505.147
C 372.793 503.258 376.041 501.495 379.27 499.736
C 388.509 494.703 397.549 489.28 406.668 484.036
C 411.346 481.346 416.229 477.346 421.377 475.88
C 419.125 481.316 415.187 486.462 412.165 491.511
C 406.586 500.833 401.131 510.231 395.656 519.615
C 393.691 522.983 391.742 526.367 389.812 529.756
C 389.433 530.421 387.633 532.738 388.535 533.261
C 376.991 529.554 368.277 521.017 365.214 509.089 Z"
opacity="1" fill="rgb(6,130,196)" fill-rule="evenodd" />
<path d="
M 421.377 475.88
C 423.488 472.969 425.158 469.566 426.957 466.451
C 429.692 461.715 432.505 457.025 435.223 452.279
C 436.37 450.275 437.643 448.341 438.772 446.329
C 439.088 445.766 439.5 444.411 440.182 444.327
C 440.964 446.68 440.59 449.597 441.25 452.083
C 442.914 458.353 447.189 463.887 452.721 467.232
C 466.968 475.847 486.833 469.421 492.086 453.179
C 494.684 445.145 492.905 436.505 488.421 429.51
C 488.771 428.686 490.616 428.874 491.406 428.851
C 494.17 428.771 496.938 428.804 499.702 428.807
C 511.613 428.821 523.65 429.262 535.544 428.835
C 527.389 438.437 528.484 453.949 536.75 463.013
C 540.947 467.616 547.4 470.697 553.559 471.412
C 564.632 472.697 576.155 465.352 580.501 455.295
C 581.641 452.659 582.277 449.954 582.606 447.109
C 582.728 446.053 582.578 445.025 582.605 443.969
C 582.615 443.58 582.284 442.961 582.639 442.803
C 582.75 442.753 583.526 444.087 583.668 444.361
C 584.73 446.418 585.924 448.396 587.145 450.365
C 592.178 458.477 597.199 466.759 601.888 475.07
C 609.846 488.88 618.038 502.574 625.899 516.442
C 628.076 520.282 630.318 524.117 632.623 527.882
C 633.43 529.2 635.431 531.366 635.553 532.89
C 633.042 533.429 630.533 533.825 627.951 533.738
C 622.918 533.568 617.696 531.854 613.874 528.486
C 609.494 524.628 606.374 518.91 603.111 514.134
C 598.614 507.553 594 501.039 589.591 494.399
C 587.185 490.775 584.75 485.941 581.371 483.134
C 580.26 482.21 578.699 482.205 577.324 482.144
C 574.783 482.03 572.233 482.058 569.69 482.032
C 559.295 481.927 548.903 481.968 538.504 481.962
C 516.178 481.947 493.852 481.987 471.525 481.965
C 465.045 481.958 458.565 482.046 452.084 482.046
C 449.445 482.045 445.723 481.398 443.234 482.393
C 441.699 483.007 440.659 484.939 439.771 486.232
C 437.472 489.581 435.055 492.845 432.773 496.206
C 427.936 503.326 422.992 510.376 418.184 517.52
C 415.466 521.56 412.885 526.52 408.767 529.322
C 402.457 533.615 395.892 534.15 388.535 533.261
C 387.633 532.738 389.433 530.421 389.812 529.756
C 391.742 526.367 393.691 522.983 395.656 519.615
C 401.131 510.231 406.586 500.833 412.165 491.511
C 415.187 486.462 419.125 481.316 421.377 475.88 Z"
opacity="1" fill="rgb(61,67,70)" fill-rule="evenodd" />
<path d="
M 465.38 418.212
C 463.09 418.853 460.705 418.927 458.426 419.7
C 452.624 421.668 447.735 425.433 444.441 430.617
C 442.994 432.895 442.377 435.437 441.274 437.856
C 438.923 439.765 434.187 439.768 431.304 439.909
C 420.849 440.42 410.541 436.414 403.112 429.005
C 388.506 414.438 389.509 390.082 403.251 375.373
C 406.072 372.354 409.375 369.947 413.043 368.062
C 427.574 360.592 445.916 363.421 457.304 375.185
C 461.84 379.87 465.012 385.549 466.822 391.799
C 468.763 398.501 469.094 405.37 467.36 412.152
C 466.876 414.042 466.515 416.598 465.38 418.212 Z
M 405.343 393.766
C 405.522 399.282 405.203 404.817 405.518 410.33
C 408.085 410.695 410.896 410.371 413.5 410.409
C 414.992 410.431 416.861 410.717 418.288 410.237
C 420.908 407.669 424.262 404.9 426.299 401.849
C 426.333 401.313 424.867 400.254 424.472 399.84
C 422.531 397.802 420.655 395.67 418.634 393.714
C 414.238 393.432 409.751 393.911 405.343 393.766 Z
M 421.428 377.773
C 421.379 381.819 420.676 386.568 421.532 390.533
C 422.568 392.169 424.39 393.518 425.771 394.881
C 427.038 396.133 428.246 397.795 429.707 398.806
C 430.574 398.47 431.3 397.116 431.99 396.482
C 434.126 394.517 436.311 392.566 438.145 390.304
C 438.93 386.32 437.883 381.776 438.171 377.711
C 435.015 377.431 431.76 377.631 428.59 377.617
C 426.255 377.607 423.729 377.309 421.428 377.773 Z
M 421.359 414.028
C 421.207 417.929 421.143 422.001 421.549 425.884
C 425.363 426.914 430.067 426.222 434 426.229
C 434.874 426.23 437.35 426.597 438.008 426.044
C 437.994 422.994 438.094 419.94 438.016 416.884
C 437.989 415.817 438.336 414.447 437.973 413.427
C 437.6 412.377 436.318 411.48 435.557 410.696
C 433.729 408.813 431.927 406.898 430.014 405.1
C 427.572 406.334 425.449 409.36 423.592 411.338
C 422.821 412.16 421.774 412.968 421.359 414.028 Z
M 433.415 401.528
C 433.313 401.681 433.212 401.834 433.111 401.988
C 434.82 404.19 436.794 406.21 438.762 408.184
C 439.521 408.945 440.451 410.198 441.524 410.457
C 445.714 410.482 450.058 410.535 454.245 410.311
C 453.83 404.855 454.579 399.297 454.12 393.833
C 451.084 393.804 448.043 393.817 445.006 393.834
C 443.714 393.842 442.301 393.591 441.037 393.854
C 438.338 395.986 435.594 398.87 433.415 401.528 Z"
opacity="1" fill="rgb(117,214,245)" fill-rule="evenodd" />
<path d="
M 408.048 360.577
C 412.078 359.368 415.954 357.582 420.039 356.414
C 431.337 353.182 442.772 351.62 454.5 351.797
C 460.916 352.721 468.019 352.03 474.502 352.024
C 487.002 352.013 499.503 352.013 512.004 352.034
C 524.459 352.055 536.914 352.046 549.368 352.025
C 553.333 352.018 557.287 351.871 561.252 351.878
C 563.922 351.883 566.764 352.167 569.409 351.764
C 585.659 351.444 601.22 355.819 616.505 360.848
C 623.733 363.532 628.332 370.375 631.434 377.041
C 625.857 372.081 619.755 368.434 612.589 366.214
C 602.86 363.006 592.691 360.634 582.509 359.429
C 568.977 357.827 554.886 358.946 541.29 359.028
C 516.864 359.177 492.433 359.06 468.007 359.102
C 459.049 359.117 449.93 358.651 440.999 359.448
C 424.402 360.93 405.982 365.878 392.631 376.263
C 394.654 372.142 397.246 368.055 400.865 365.141
C 403.109 363.334 405.697 362.187 408.048 360.577 Z"
opacity="1" fill="rgb(119,216,244)" fill-rule="evenodd" />
<path d="
M 405.343 393.766
C 409.751 393.911 414.238 393.432 418.634 393.714
C 420.655 395.67 422.531 397.802 424.472 399.84
C 424.867 400.254 426.333 401.313 426.299 401.849
C 424.262 404.9 420.908 407.669 418.288 410.237
C 416.861 410.717 414.992 410.431 413.5 410.409
C 410.896 410.371 408.085 410.695 405.518 410.33
C 405.203 404.817 405.522 399.282 405.343 393.766 Z"
opacity="1" fill="rgb(63,67,69)" fill-rule="evenodd" />
<path d="
M 454.5 351.797
C 442.772 351.62 431.337 353.182 420.039 356.414
C 415.954 357.582 412.078 359.368 408.048 360.577
C 408.405 357.089 408.49 352.493 411.167 349.874
C 413.423 347.667 416.878 347.146 419.828 346.492
C 425.952 345.137 432.112 343.956 438.319 343.042
C 441.158 342.624 444.476 341.756 447.241 342.932
C 451.08 344.564 452.424 348.53 454.5 351.797 Z"
opacity="1" fill="rgb(62,68,70)" fill-rule="evenodd" />
<path d="
M 421.428 377.773
C 423.729 377.309 426.255 377.607 428.59 377.617
C 431.76 377.631 435.015 377.431 438.171 377.711
C 437.883 381.776 438.93 386.32 438.145 390.304
C 436.311 392.566 434.126 394.517 431.99 396.482
C 431.3 397.116 430.574 398.47 429.707 398.806
C 428.246 397.795 427.038 396.133 425.771 394.881
C 424.39 393.518 422.568 392.169 421.532 390.533
C 420.676 386.568 421.379 381.819 421.428 377.773 Z"
opacity="1" fill="rgb(63,67,69)" fill-rule="evenodd" />
<path d="
M 421.359 414.028
C 421.774 412.968 422.821 412.16 423.592 411.338
C 425.449 409.36 427.572 406.334 430.014 405.1
C 431.927 406.898 433.729 408.813 435.557 410.696
C 436.318 411.48 437.6 412.377 437.973 413.427
C 438.336 414.447 437.989 415.817 438.016 416.884
C 438.094 419.94 437.994 422.994 438.008 426.044
C 437.35 426.597 434.874 426.23 434 426.229
C 430.067 426.222 425.363 426.914 421.549 425.884
C 421.143 422.001 421.207 417.929 421.359 414.028 Z"
opacity="1" fill="rgb(63,68,69)" fill-rule="evenodd" />
<path d="
M 433.415 401.528
C 435.594 398.87 438.338 395.986 441.037 393.854
C 442.301 393.591 443.714 393.842 445.006 393.834
C 448.043 393.817 451.084 393.804 454.12 393.833
C 454.579 399.297 453.83 404.855 454.245 410.311
C 450.058 410.535 445.714 410.482 441.524 410.457
C 440.451 410.198 439.521 408.945 438.762 408.184
C 436.794 406.21 434.82 404.19 433.111 401.988
C 433.212 401.834 433.313 401.681 433.415 401.528 Z"
opacity="1" fill="rgb(63,68,70)" fill-rule="evenodd" />
<path d="
M 441.274 437.856
C 442.377 435.437 442.994 432.895 444.441 430.617
C 447.735 425.433 452.624 421.668 458.426 419.7
C 460.705 418.927 463.09 418.853 465.38 418.212
C 471.929 417.164 479.388 420.737 484.133 424.976
C 485.458 426.159 487.685 427.916 488.421 429.51
C 492.905 436.505 494.684 445.145 492.086 453.179
C 486.833 469.421 466.968 475.847 452.721 467.232
C 447.189 463.887 442.914 458.353 441.25 452.083
C 440.59 449.597 440.964 446.68 440.182 444.327
C 440.339 442.318 440.838 439.866 441.274 437.856 Z
M 448.985 442.606
C 448.678 446.369 449.273 450.378 451.102 453.716
C 458.034 466.366 477.079 466.335 483.761 453.526
C 484.833 451.47 485.429 449.295 485.634 446.989
C 486.332 439.127 481.981 431.013 474.57 427.968
C 463.766 423.529 449.977 430.422 448.985 442.606 Z"
opacity="1" fill="rgb(2,134,198)" fill-rule="evenodd" />
<path d="
M 443.453 640.108
C 444.555 631.691 446.093 624.443 451.115 617.354
C 460.91 603.524 481.527 599.874 496.79 605.45
C 511.153 610.697 517.179 624.614 517.836 639.035
C 517.957 641.69 517.97 644.353 517.929 647.011
C 517.914 647.987 518.204 649.628 517.746 650.502
C 505.509 650.598 493.245 650.381 481.002 650.36
C 477.595 650.354 474.189 650.371 470.783 650.399
C 469.09 650.413 467.228 650.139 465.658 650.875
C 465.803 653.438 466.27 655.786 467.164 658.201
C 472.146 671.662 489.144 670.069 500.253 666.235
C 502.778 665.363 505.142 664.234 507.608 663.23
C 508.49 664.074 508.789 666.146 509.344 667.278
C 511.032 670.723 512.968 674.1 514.545 677.592
C 514.384 678.132 513.476 678.46 513 678.716
C 511.267 679.644 509.411 680.334 507.614 681.127
C 500.043 684.469 491.742 685.913 483.493 685.938
C 478.894 685.952 474.114 685.356 469.702 684.035
C 465.466 682.767 461.263 680.917 457.694 678.274
C 445.874 669.517 442.257 654.123 443.453 640.108 Z
M 465.959 633.592
C 465.811 634.465 465.731 635.342 465.607 636.22
C 470.426 635.636 475.418 635.936 480.263 635.964
C 485.597 635.993 490.971 635.792 496.297 635.94
C 496.894 635.451 496.286 633.292 496.191 632.541
C 495.708 628.73 493.946 624.802 491.035 622.248
C 485.366 617.274 475.827 618.222 470.729 623.511
C 467.964 626.381 466.837 629.813 465.959 633.592 Z"
opacity="1" fill="rgb(59,64,67)" fill-rule="evenodd" />
<path d="
M 448.985 442.606
C 449.977 430.422 463.766 423.529 474.57 427.968
C 481.981 431.013 486.332 439.127 485.634 446.989
C 485.429 449.295 484.833 451.47 483.761 453.526
C 477.079 466.335 458.034 466.366 451.102 453.716
C 449.273 450.378 448.678 446.369 448.985 442.606 Z"
opacity="1" fill="rgb(60,67,70)" fill-rule="evenodd" />
<path d="
M 481.411 398.055
C 483.126 394.09 487.037 394.676 490.717 394.759
C 492.33 394.795 494.295 394.572 495.471 395.893
C 497.583 398.265 497.671 404.863 494.527 406.375
C 492.253 406.945 489.584 406.693 487.241 406.77
C 486.135 406.807 484.837 406.952 483.798 406.471
C 480.82 405.091 480.678 400.785 481.411 398.055 Z"
opacity="1" fill="rgb(62,70,71)" fill-rule="evenodd" />
<path d="
M 527.429 395.465
C 527.53 395.308 527.632 395.15 527.733 394.993
C 529.249 394.643 531.823 394.048 533.341 394.637
C 535.748 395.571 538.052 398.284 540.146 399.796
C 540.989 400.405 542.21 400.959 542.737 401.901
C 543.431 403.139 542.672 405.351 541.569 406.12
C 538.486 406.625 535.119 406.245 532.002 406.216
C 530.606 406.203 528.794 406.54 527.484 406.005
C 526.852 402.72 526.777 398.756 527.429 395.465 Z"
opacity="1" fill="rgb(62,73,72)" fill-rule="evenodd" />
<path d="
M 535.544 428.835
C 536.031 428.415 536.287 427.674 536.686 427.153
C 541.563 421.901 550.545 416.875 558.009 418.336
C 560.733 418.982 563.346 419.012 566.011 420.053
C 574.525 423.381 579.331 430.322 582.15 438.675
C 584.675 439.713 588.165 439.806 590.88 440.018
C 611.645 441.638 630.237 424.362 631.532 403.974
C 632.186 393.686 628.346 382.324 620.971 375.026
C 617.949 372.034 614.459 370.311 611.003 367.992
C 611.749 367.917 611.897 366.591 612.589 366.214
C 619.755 368.434 625.857 372.081 631.434 377.041
C 636.07 386.479 638.749 396.691 641.48 406.799
C 645.726 422.52 649.156 438.436 652.747 454.314
C 656.649 471.566 662.021 490.228 658.688 507.942
C 658.728 507.339 656.124 506.174 655.613 505.881
C 652.122 503.877 648.619 501.894 645.089 499.958
C 630.546 491.982 616.722 482.359 601.888 475.07
C 597.199 466.759 592.178 458.477 587.145 450.365
C 585.924 448.396 584.73 446.418 583.668 444.361
C 583.526 444.087 582.75 442.753 582.639 442.803
C 582.284 442.961 582.615 443.58 582.605 443.969
C 582.578 445.025 582.728 446.053 582.606 447.109
C 582.277 449.954 581.641 452.659 580.501 455.295
C 576.155 465.352 564.632 472.697 553.559 471.412
C 547.4 470.697 540.947 467.616 536.75 463.013
C 528.484 453.949 527.389 438.437 535.544 428.835 Z
M 537.956 443.106
C 537.733 446.129 538.123 449.24 539.238 452.065
C 540.028 454.066 541.326 455.881 542.792 457.441
C 553.48 468.818 573.188 462.016 574.59 446.471
C 574.821 443.915 574.545 441.259 573.695 438.832
C 572.473 435.345 570.252 432.097 567.24 429.924
C 558.201 423.402 544.498 426.75 539.708 436.833
C 538.789 438.768 538.114 440.958 537.956 443.106 Z"
opacity="1" fill="rgb(4,158,215)" fill-rule="evenodd" />
<path d="
M 537.956 443.106
C 538.114 440.958 538.789 438.768 539.708 436.833
C 544.498 426.75 558.201 423.402 567.24 429.924
C 570.252 432.097 572.473 435.345 573.695 438.832
C 574.545 441.259 574.821 443.915 574.59 446.471
C 573.188 462.016 553.48 468.818 542.792 457.441
C 541.326 455.881 540.028 454.066 539.238 452.065
C 538.123 449.24 537.733 446.129 537.956 443.106 Z"
opacity="1" fill="rgb(60,67,70)" fill-rule="evenodd" />
<path d="
M 549.459 637.597
C 551.272 628.44 553.525 620.128 560.105 613.083
C 571.911 600.442 593.511 599.386 605.672 612.163
C 605.41 603.132 605.719 594.04 605.779 585.003
C 605.795 582.501 605.831 580.001 605.893 577.499
C 605.927 576.121 605.76 574.599 606.334 573.326
C 611.41 573.272 616.487 573.306 621.564 573.318
C 622.968 573.321 626.335 572.652 627.435 573.427
C 626.869 581.212 627.313 589.196 627.307 597.002
C 627.296 612.834 627.37 628.667 627.31 644.499
C 627.276 653.5 627.259 662.5 627.254 671.5
C 627.252 674.333 627.264 677.166 627.269 679.999
C 627.272 681.19 627.039 682.61 627.293 683.766
C 622.231 683.461 617.067 683.74 611.995 683.736
C 610.577 683.735 607.455 684.378 606.313 683.631
C 606.298 680.463 606.336 677.202 606.081 674.048
C 604.211 675.111 602.79 677.615 601.074 679.022
C 596.834 682.497 591.868 684.755 586.435 685.555
C 583.002 686.06 579.382 685.902 575.995 685.143
C 571.978 684.244 568.043 682.843 564.622 680.507
C 551.285 671.394 547.512 652.744 549.459 637.597 Z
M 571.911 638.609
C 570.945 647.087 571.599 658.983 578.897 664.735
C 588.593 672.375 604.154 665.509 605.554 653.454
C 605.99 649.703 605.783 645.835 605.785 642.065
C 605.787 636.61 606.245 631.176 602.525 626.739
C 596.261 619.268 584.122 618.381 577.244 625.379
C 573.869 628.813 572.442 633.948 571.911 638.609 Z"
opacity="1" fill="rgb(60,65,67)" fill-rule="evenodd" />
<path d="
M 611.003 367.992
C 614.459 370.311 617.949 372.034 620.971 375.026
C 628.346 382.324 632.186 393.686 631.532 403.974
C 630.237 424.362 611.645 441.638 590.88 440.018
C 588.165 439.806 584.675 439.713 582.15 438.675
C 579.331 430.322 574.525 423.381 566.011 420.053
C 563.346 419.012 560.733 418.982 558.009 418.336
C 556.763 416.681 556.282 414.05 555.828 412.067
C 554.687 407.095 554.346 402.178 555.117 397.119
C 557.95 378.525 573.581 364.213 592.509 363.819
C 599.096 363.681 604.952 365.75 611.003 367.992 Z
M 562.956 402.115
C 562.922 403.426 563.18 404.755 563.661 405.973
C 567.354 415.315 581.558 412.587 581.985 402.736
C 582.427 392.545 568.259 388.878 563.899 398.274
C 563.344 399.469 562.991 400.788 562.956 402.115 Z
M 582.951 381.603
C 582.181 391.585 596.228 395.826 601.019 387.037
C 601.623 385.927 602.041 384.723 602.178 383.463
C 603.291 373.181 589.3 368.713 584.138 377.639
C 583.473 378.789 583.053 380.279 582.951 381.603 Z
M 583.431 419.082
C 580.982 429.033 594.114 435.004 600.308 427.099
C 601.129 426.051 601.675 424.812 601.969 423.52
C 604.18 413.782 591.375 407.537 585.14 415.429
C 584.306 416.485 583.751 417.779 583.431 419.082 Z
M 603.388 401.599
C 602.399 411.438 616.409 415.398 621.296 407.197
C 622.037 405.956 622.501 404.534 622.643 403.096
C 623.635 393.1 609.514 388.969 604.651 397.609
C 603.986 398.791 603.524 400.248 603.388 401.599 Z"
opacity="1" fill="rgb(112,213,244)" fill-rule="evenodd" />
<path d="
M 562.956 402.115
C 562.991 400.788 563.344 399.469 563.899 398.274
C 568.259 388.878 582.427 392.545 581.985 402.736
C 581.558 412.587 567.354 415.315 563.661 405.973
C 563.18 404.755 562.922 403.426 562.956 402.115 Z"
opacity="1" fill="rgb(61,69,72)" fill-rule="evenodd" />
<path d="
M 616.505 360.848
C 601.22 355.819 585.659 351.444 569.409 351.764
C 570.384 348.434 573.797 343.65 577.23 342.674
C 579.775 341.951 582.598 342.506 585.161 342.874
C 590.115 343.587 595.03 344.52 599.924 345.559
C 603.976 346.419 609.037 346.885 612.474 349.385
C 614.797 351.074 615.448 354.225 615.746 356.902
C 615.874 358.048 615.515 360.057 616.505 360.848 Z"
opacity="1" fill="rgb(62,67,69)" fill-rule="evenodd" />
<path d="
M 582.951 381.603
C 583.053 380.279 583.473 378.789 584.138 377.639
C 589.3 368.713 603.291 373.181 602.178 383.463
C 602.041 384.723 601.623 385.927 601.019 387.037
C 596.228 395.826 582.181 391.585 582.951 381.603 Z"
opacity="1" fill="rgb(61,69,72)" fill-rule="evenodd" />
<path d="
M 583.431 419.082
C 583.751 417.779 584.306 416.485 585.14 415.429
C 591.375 407.537 604.18 413.782 601.969 423.52
C 601.675 424.812 601.129 426.051 600.308 427.099
C 594.114 435.004 580.982 429.033 583.431 419.082 Z"
opacity="1" fill="rgb(62,70,73)" fill-rule="evenodd" />
<path d="
M 601.888 475.07
C 616.722 482.359 630.546 491.982 645.089 499.958
C 648.619 501.894 652.122 503.877 655.613 505.881
C 656.124 506.174 658.728 507.339 658.688 507.942
C 656.672 519.193 646.834 530.456 635.553 532.89
C 635.431 531.366 633.43 529.2 632.623 527.882
C 630.318 524.117 628.076 520.282 625.899 516.442
C 618.038 502.574 609.846 488.88 601.888 475.07 Z"
opacity="1" fill="rgb(7,128,194)" fill-rule="evenodd" />
<path d="
M 603.388 401.599
C 603.524 400.248 603.986 398.791 604.651 397.609
C 609.514 388.969 623.635 393.1 622.643 403.096
C 622.501 404.534 622.037 405.956 621.296 407.197
C 616.409 415.398 602.399 411.438 603.388 401.599 Z"
opacity="1" fill="rgb(64,70,73)" fill-rule="evenodd" />
<path d="
M 637.952 641.111
C 638.686 629.101 643.946 617.182 653.877 610.075
C 672.581 596.692 703.514 602.077 714.025 623.188
C 717.496 630.159 718.895 638.247 718.561 645.99
C 718.093 656.86 714.727 667.516 706.728 675.219
C 691.309 690.066 660.324 689.948 646.719 672.496
C 639.908 663.759 637.283 652.061 637.952 641.111 Z
M 660.429 640.111
C 659.594 648.238 660.762 658.8 667.041 664.697
C 673.832 671.074 684.967 669.751 690.709 662.672
C 693.821 658.835 695.087 653.615 695.636 648.807
C 696.539 640.895 695.563 630.602 689.667 624.648
C 683.108 618.024 671.304 618.738 665.429 625.808
C 662.157 629.746 660.94 635.139 660.429 640.111 Z"
opacity="1" fill="rgb(60,64,66)" fill-rule="evenodd" />
<path d="
M 725.43 638.102
C 726.471 632.006 727.922 626.322 731.107 620.946
C 739.537 606.714 756.265 601.391 772.013 603.449
C 777.401 604.153 782.755 605.819 787.616 608.224
C 788.971 608.893 791.746 610.045 792.458 611.462
C 791.911 612.889 790.771 614.029 789.915 615.284
C 788.39 617.52 786.97 619.835 785.427 622.056
C 784.497 623.394 783.125 624.901 782.76 626.506
C 782.151 626.615 781.198 625.709 780.702 625.386
C 778.999 624.278 777.336 623.31 775.447 622.549
C 769.104 619.996 761.543 619.519 755.863 623.886
C 753.229 625.912 751.237 628.485 749.937 631.548
C 745.182 642.749 746.898 661.542 759.426 667.003
C 764.962 669.416 771.679 668.39 777.101 666.161
C 779.674 665.104 782.073 663.517 784.696 662.626
C 785.677 663.161 786.522 664.938 787.125 665.884
C 788.649 668.279 790.299 670.598 791.958 672.9
C 792.426 673.55 794.271 675.563 793.844 676.257
C 786.574 680.875 779.121 684.434 770.447 685.553
C 755.085 687.536 737.919 681.216 730.435 667.064
C 728.458 663.326 726.956 659.22 726.192 655.053
C 725.167 649.467 724.719 643.763 725.43 638.102 Z"
opacity="1" fill="rgb(60,65,67)" fill-rule="evenodd" />
<path d="
M 803.459 577.62
C 803.638 576.242 803.238 574.572 803.758 573.285
C 810.794 573.666 818.22 572.34 825.2 573.317
C 825.52 580.013 825.225 586.795 825.227 593.502
C 825.23 608.187 825.158 622.885 825.49 637.562
C 826.416 636.998 826.949 635.805 827.623 634.971
C 829.138 633.096 830.549 631.154 832.02 629.247
C 836.214 623.813 840.578 618.509 844.759 613.064
C 846.766 610.45 848.874 606.757 851.46 604.749
C 856.655 604.105 862.267 604.696 867.505 604.695
C 870.43 604.694 874.112 604.114 876.944 604.86
C 876.468 606.076 874.965 607.047 874.084 608.027
C 872.05 610.286 870.047 612.599 868.083 614.919
C 862.954 620.979 857.781 626.999 852.692 633.092
C 850.901 635.237 848.809 637.233 847.14 639.459
C 847.132 640.631 848.554 641.782 849.236 642.735
C 851.134 645.388 853.142 647.961 855.015 650.632
C 860.276 658.133 866.093 665.275 871.58 672.611
C 874.224 676.147 876.694 680.73 879.892 683.726
C 879.875 683.817 878.627 683.745 878.515 683.743
C 877.009 683.721 875.502 683.746 873.996 683.748
C 868.996 683.756 863.995 683.757 858.995 683.757
C 857.456 683.757 854.586 684.365 853.272 683.605
C 848.252 676.763 843.292 669.84 838.4 662.906
C 835.383 658.629 832.612 654.095 829.302 650.048
C 828.163 651.074 825.822 653.577 825.411 655.023
C 824.894 656.841 825.307 659.244 825.317 661.121
C 825.34 665.249 825.357 669.377 825.341 673.505
C 825.33 676.683 824.745 680.493 825.311 683.602
C 818.145 684.023 810.903 683.387 803.733 683.697
C 802.861 679.422 803.431 674.353 803.428 669.996
C 803.423 661.664 803.399 653.331 803.392 644.999
C 803.379 630.332 803.346 615.666 803.35 600.999
C 803.352 593.245 802.969 585.358 803.459 577.62 Z"
opacity="1" fill="rgb(59,65,67)" fill-rule="evenodd" />

</svg>