<svg width="1134" height="756" xmlns="http://www.w3.org/2000/svg" xmlns:xlink="http://www.w3.org/1999/xlink" xml:space="preserve" overflow="hidden"><defs><clipPath id="clip0"><rect x="-60" y="-18" width="1134" height="756"/></clipPath><clipPath id="clip1"><rect x="-60" y="-18" width="1134" height="756"/></clipPath><linearGradient x1="1729.46" y1="19.5591" x2="1724.94" y2="306.983" gradientUnits="userSpaceOnUse" spreadMethod="pad" id="fill2"><stop offset="0" stop-color="#C2C2C2" stop-opacity="1"/><stop offset="1" stop-color="#9F9F9F" stop-opacity="1"/></linearGradient></defs><g clip-path="url(#clip0)" transform="translate(60 18)"><g clip-path="url(#clip1)"><path d="M19.4943 0 897.268 0C908.03 0 916.762 8.7107 916.762 19.4612L916.762 1106.82C916.762 1117.57 908.03 1126.28 897.268 1126.28L19.4943 1126.28C8.73275 1126.28 0 1117.57 0 1106.82L0 19.4612C0 8.7107 8.73275 0 19.4943 0Z" fill="#EEEEEE" fill-rule="nonzero" fill-opacity="1" transform="matrix(1.23613 0 0 1 -60 -188.683)"/><path d="M238.089 347.336 413.339 296.053C425.711 292.437 438.677 299.505 442.305 311.854L499.939 507.977C503.567 520.315 496.477 533.26 484.105 536.877L308.855 588.16C296.483 591.787 283.517 584.708 279.889 572.359L222.255 376.247C218.627 363.898 225.717 350.953 238.089 347.336Z" fill="#9F9F9F" fill-rule="nonzero" fill-opacity="1" transform="matrix(1.23613 0 0 1 -60 -188.683)"/><path d="M1552.16 4.64347 1829.64 4.64719C1836.79 4.63972 1842.57 10.4251 1842.57 17.5672L1842.57 317.918C1842.57 325.061 1836.79 330.854 1829.64 330.85L1552.16 330.847C1545.03 330.851 1539.24 325.066 1539.23 317.927L1539.23 17.5755C1539.23 10.4334 1545.02 4.63707 1552.16 4.64347Z" stroke="#FFFFFF" stroke-width="15.1846" stroke-linecap="round" stroke-linejoin="round" stroke-miterlimit="4" stroke-opacity="1" fill="url(#fill2)" fill-rule="nonzero" transform="matrix(1.17238 0.277119 -0.343283 0.946413 -1385.16 -439.515)"/><path d="M131.134 52.1456 369.647 52.1399 369.656 270.701 131.128 270.699Z" stroke="#FFFFFF" stroke-width="6.3482" stroke-linecap="round" stroke-linejoin="round" stroke-miterlimit="4" stroke-opacity="1" fill="#CCCCCC" fill-rule="evenodd" fill-opacity="1" transform="matrix(1.17238 0.277118 -0.343283 0.946414 311.096 -56.8604)"/><path d="M131.134 52.1456 369.647 52.1399 369.658 154.137 131.131 154.135Z" stroke="#FFFFFF" stroke-width="6.3482" stroke-linecap="round" stroke-linejoin="round" stroke-miterlimit="4" stroke-opacity="1" fill="#FFFFFF" fill-rule="evenodd" fill-opacity="1" transform="matrix(1.17238 0.277118 -0.343283 0.946414 311.096 -56.8604)"/><path d="M145.698 154.134 164.382 128.135 193.778 106.199 201.499 115.216 208.103 96.4359 212.096 94.9869 218.558 81.2812 305.982 168.704" stroke="#FFFFFF" stroke-width="6.3482" stroke-linecap="round" stroke-linejoin="round" stroke-miterlimit="4" stroke-opacity="1" fill="#CCCCCC" fill-rule="evenodd" fill-opacity="1" transform="matrix(1.17238 0.277118 -0.343283 0.946414 311.096 -56.8604)"/><path d="M87.4247 29.1377C89.4084 37.1433 91.1641 45.204 92.6887 53.3091 93.8467 59.4477 94.8763 65.624 95.7603 71.8195L85.0454 68.3394 62.6453 54.0556 65.2383 76.6091 64.4485 88.6423 69.3267 103.396 104.879 97.6816 145.703 87.4173 122.486 49.8153 117.773 57.0671 104.606 46.3244Z" stroke="#FFFFFF" stroke-width="6.3482" stroke-linecap="round" stroke-linejoin="round" stroke-miterlimit="4" stroke-opacity="1" fill="#B3B3B3" fill-rule="evenodd" fill-opacity="1" transform="matrix(1.17238 0.277118 -0.343283 0.946414 446.933 28.8282)"/><path d="M203.99 168.708 243.758 132.563 252.75 127.856 264.242 106.398 276.84 95.8586 364.261 183.271" stroke="#FFFFFF" stroke-width="6.3482" stroke-linecap="round" stroke-linejoin="round" stroke-miterlimit="4" stroke-opacity="1" fill="#CCCCCC" fill-rule="evenodd" fill-opacity="1" transform="matrix(1.17238 0.277118 -0.343283 0.946414 311.096 -56.8604)"/><path d="M276.84 95.8586 294.286 135.15 294.291 149.782 294.294 164.402 305.199 173.85C308.363 170.722 312.07 168.134 316.104 166.23 323.305 162.828 331.316 161.682 339.012 159.615 342.136 158.771 345.274 157.735 347.856 155.791 348.513 155.296 349.126 154.731 349.685 154.137L335.118 154.138 315.436 134.445 300.933 110.684 295.957 114.972Z" stroke="#FFFFFF" stroke-width="6.3482" stroke-linecap="round" stroke-linejoin="round" stroke-miterlimit="4" stroke-opacity="1" fill="#B3B3B3" fill-rule="evenodd" fill-opacity="1" transform="matrix(1.17238 0.277118 -0.343283 0.946414 311.096 -56.8604)"/><path d="M203.987 270.698C203.785 266.039 199.703 262.143 212.3 255.81 227.76 248.02 273.449 238.37 286.194 226.67 295.633 218.011 252.004 208.37 259.482 197.978 262.87 193.27 288.149 188.28 299.38 183.279 310.011 178.534 306.724 173.66 314.626 168.725 322.261 163.949 347.83 159.119 349.685 154.137 344.637 159.25 316.254 164.042 305.982 168.704 295.125 173.631 295.552 178.387 281.972 183.028 267.333 188.025 238.669 193.005 232.088 197.844 218.29 207.978 254.841 218.537 239.958 226.985 219.791 238.435 167.42 248.015 145.708 256.131 130.691 261.74 131.909 264.75 131.128 270.699" stroke="#FFFFFF" stroke-width="6.3482" stroke-linecap="round" stroke-linejoin="round" stroke-miterlimit="4" stroke-opacity="1" fill="#FFFFFF" fill-rule="evenodd" fill-opacity="1" transform="matrix(1.17238 0.277118 -0.343283 0.946414 311.096 -56.8604)"/><path d="M8.15939-64.7017 26.8598-64.7017 50.4118-20.3323 50.4118-64.7017 66.2895-64.7017 66.2895 0 47.5891 0 24.0371-44.4135 24.0371 0 8.15939 0Z" fill="#767676" fill-rule="nonzero" fill-opacity="1" transform="matrix(1.23613 0 0 1 187.381 613.946)"/><path d="M37.7978-53.8079C32.6817-53.8079 28.7122-51.9224 25.8895-48.1624 23.0889-44.3915 21.6996-39.0989 21.6996-32.2847 21.6996-25.4926 23.0889-20.211 25.8895-16.4511 28.7122-12.7132 32.6817-10.8498 37.7978-10.8498 42.914-10.8498 46.8614-12.7132 49.662-16.4511 52.4847-20.211 53.8961-25.4926 53.8961-32.2847 53.8961-39.0989 52.4847-44.3915 49.662-48.1624 46.8614-51.9224 42.914-53.8079 37.7978-53.8079ZM37.7978-65.8926C48.2065-65.8926 56.3659-62.9045 62.276-56.9393 68.186-50.9962 71.141-42.7817 71.141-32.2847 71.141-21.8098 68.186-13.5953 62.276-7.63013 56.3659-1.68701 48.2065 1.27904 37.7978 1.27904 27.3891 1.27904 19.2076-1.68701 13.2755-7.63013 7.3655-13.5953 4.41048-21.8098 4.41048-32.2847 4.41048-42.7817 7.3655-50.9962 13.2755-56.9393 19.2076-62.9045 27.3891-65.8926 37.7978-65.8926Z" fill="#767676" fill-rule="nonzero" fill-opacity="1" transform="matrix(1.23613 0 0 1 279.411 613.946)"/><path d="M8.15939-64.7017 24.8751-64.7017 24.8751 0 8.15939 0Z" fill="#767676" fill-rule="nonzero" fill-opacity="1" transform="matrix(1.23613 0 0 1 411.174 613.946)"/><path d="M8.15939-64.7017 29.462-64.7017 44.2371-30.0795 59.0563-64.7017 80.3148-64.7017 80.3148 0 64.5253 0 64.5253-47.3245 49.5738-12.4376 38.9445-12.4376 24.0371-47.3245 24.0371 0 8.15939 0Z" fill="#767676" fill-rule="nonzero" fill-opacity="1" transform="matrix(1.23613 0 0 1 452.088 613.946)"/><path d="M47.5009-11.776 21.3908-11.776 17.245 0 0.441048 0 24.4341-64.7017 44.4135-64.7017 68.4065 0 51.6026 0ZM25.5367-23.8166 43.3109-23.8166 34.4459-49.5297Z" fill="#767676" fill-rule="nonzero" fill-opacity="1" transform="matrix(1.23613 0 0 1 561.515 613.946)"/><path d="M66.4659-4.80742C62.287-2.7786 57.9537-1.24596 53.455-0.220524 48.9784 0.771835 44.3474 1.27904 39.562 1.27904 28.7674 1.27904 20.211-1.73111 13.893-7.76244 7.56397-13.7827 4.41048-21.9642 4.41048-32.2847 4.41048-42.7155 7.63013-50.919 14.0694-56.8952 20.5087-62.8934 29.3076-65.8926 40.4882-65.8926 44.8105-65.8926 48.9343-65.4736 52.8817-64.6576 56.8511-63.8638 60.5779-62.6729 64.0843-61.0851L64.0843-47.6773C60.4677-49.7282 56.8621-51.2608 53.2786-52.2642 49.6841-53.2896 46.1005-53.8079 42.517-53.8079 35.8682-53.8079 30.741-51.9334 27.1245-48.2065 23.5079-44.5017 21.6996-39.1871 21.6996-32.2847 21.6996-25.4264 23.4307-20.1338 26.9039-16.407 30.3992-12.7022 35.339-10.8498 41.7231-10.8498 43.4873-10.8498 45.0972-10.949 46.5747-11.1585 48.0742-11.357 49.4084-11.6988 50.5882-12.1729L50.5882-24.7428 40.4-24.7428 40.4-35.9454 66.4659-35.9454Z" fill="#767676" fill-rule="nonzero" fill-opacity="1" transform="matrix(1.23613 0 0 1 646.619 613.946)"/><path d="M8.15939-64.7017 53.2786-64.7017 53.2786-52.0878 24.8751-52.0878 24.8751-40.0472 51.6026-40.0472 51.6026-27.4332 24.8751-27.4332 24.8751-12.614 54.2489-12.614 54.2489 0 8.15939 0Z" fill="#767676" fill-rule="nonzero" fill-opacity="1" transform="matrix(1.23613 0 0 1 736.877 613.946)"/><path d="M47.5009-11.776 21.3908-11.776 17.245 0 0.441048 0 24.4341-64.7017 44.4135-64.7017 68.4065 0 51.6026 0ZM25.5367-23.8166 43.3109-23.8166 34.4459-49.5297Z" fill="#767676" fill-rule="nonzero" fill-opacity="1" transform="matrix(1.23613 0 0 1 166.95 724.902)"/><path d="M0.441048-64.7017 17.245-64.7017 34.4459-16.9362 51.6026-64.7017 68.4065-64.7017 44.4135 0 24.4341 0Z" fill="#767676" fill-rule="nonzero" fill-opacity="1" transform="matrix(1.23613 0 0 1 244.59 724.902)"/><path d="M47.5009-11.776 21.3908-11.776 17.245 0 0.441048 0 24.4341-64.7017 44.4135-64.7017 68.4065 0 51.6026 0ZM25.5367-23.8166 43.3109-23.8166 34.4459-49.5297Z" fill="#767676" fill-rule="nonzero" fill-opacity="1" transform="matrix(1.23613 0 0 1 322.231 724.902)"/><path d="M8.15939-64.7017 24.8751-64.7017 24.8751 0 8.15939 0Z" fill="#767676" fill-rule="nonzero" fill-opacity="1" transform="matrix(1.23613 0 0 1 407.334 724.902)"/><path d="M8.15939-64.7017 24.8751-64.7017 24.8751-12.614 54.2489-12.614 54.2489 0 8.15939 0Z" fill="#767676" fill-rule="nonzero" fill-opacity="1" transform="matrix(1.23613 0 0 1 448.249 724.902)"/><path d="M47.5009-11.776 21.3908-11.776 17.245 0 0.441048 0 24.4341-64.7017 44.4135-64.7017 68.4065 0 51.6026 0ZM25.5367-23.8166 43.3109-23.8166 34.4459-49.5297Z" fill="#767676" fill-rule="nonzero" fill-opacity="1" transform="matrix(1.23613 0 0 1 518.318 724.902)"/><path d="M34.1371-39.6502C36.7834-39.6502 38.7791-40.2236 40.1354-41.3703 41.4806-42.5391 42.1642-44.2592 42.1642-46.5306 42.1642-48.7358 41.4806-50.4228 40.1354-51.6026 38.7791-52.7714 36.7834-53.3668 34.1371-53.3668L24.8751-53.3668 24.8751-39.6502ZM34.7105-11.379C38.0624-11.379 40.5764-12.0847 42.2524-13.4961 43.9504-14.9074 44.8105-17.0355 44.8105-19.8913 44.8105-22.6809 43.9725-24.7869 42.2965-26.1983 40.6205-27.6096 38.0845-28.3153 34.7105-28.3153L24.8751-28.3153 24.8751-11.379ZM50.2354-34.6223C53.852-33.5858 56.6416-31.6672 58.6153-28.8445 60.5779-26.0439 61.5703-22.6258 61.5703-18.5681 61.5703-12.3052 59.4533-7.64116 55.2192-4.5869 50.9851-1.52161 44.5458 0 35.9013 0L8.15939 0 8.15939-64.7017 33.255-64.7017C42.2744-64.7017 48.802-63.3455 52.8376-60.6441 56.8621-57.9317 58.8799-53.5873 58.8799-47.5891 58.8799-44.4356 58.1412-41.7672 56.6747-39.562 55.1972-37.3568 53.0581-35.7028 50.2354-34.6223Z" fill="#767676" fill-rule="nonzero" fill-opacity="1" transform="matrix(1.23613 0 0 1 603.422 724.902)"/><path d="M8.15939-64.7017 24.8751-64.7017 24.8751-12.614 54.2489-12.614 54.2489 0 8.15939 0Z" fill="#767676" fill-rule="nonzero" fill-opacity="1" transform="matrix(1.23613 0 0 1 687.237 724.902)"/><path d="M8.15939-64.7017 53.2786-64.7017 53.2786-52.0878 24.8751-52.0878 24.8751-40.0472 51.6026-40.0472 51.6026-27.4332 24.8751-27.4332 24.8751-12.614 54.2489-12.614 54.2489 0 8.15939 0Z" fill="#767676" fill-rule="nonzero" fill-opacity="1" transform="matrix(1.23613 0 0 1 757.306 724.902)"/></g></g></svg>